<svg xmlns="http://www.w3.org/2000/svg" version="1.1" xmlns:xlink="http://www.w3.org/1999/xlink" x="0" y="0" viewBox="0 0 512 512" style="enable-background:new 0 0 512 512" xml:space="preserve"><g><path d="M430.373 52.267H82.64c-18.133 0-32 13.867-32 32V480c0 18.133 13.867 32 32 32h346.667c18.133 0 32-13.867 32-32V84.267c1.066-17.067-13.867-32-30.934-32z" style="" fill="#ffd15c" data-original="#ffd15c"/><path d="M93.306 94.933h325.333v373.333H93.306z" style="" fill="#ffffff" data-original="#ffffff"/><path d="M292.773 35.2C291.706 14.933 275.706 0 256.506 0s-35.2 14.933-36.267 35.2c-38.4 0-68.267 30.933-68.267 68.267H361.04c0-38.4-30.934-68.267-68.267-68.267z" style="" fill="#415a6b" data-original="#415a6b"/><circle cx="256.506" cy="35.2" r="11.733" style="" fill="#ffffff" data-original="#ffffff"/><path d="M167.973 218.667c-1.067 1.067-3.2 2.133-5.333 3.2-3.2 1.067-6.4 0-8.533-3.2l-24.533-24.533c-4.267-4.267-4.267-10.667 0-13.867 4.267-4.267 10.667-4.267 13.867 0l14.933 13.867C169.04 176 181.84 160 198.906 147.2c4.267-3.2 10.667-2.133 13.867 2.133 3.2 4.267 2.133 10.667-2.133 13.867-17.067 13.867-30.933 30.933-40.533 51.2-.001 2.133-1.067 3.2-2.134 4.267z" style="" fill="#f3705a" data-original="#f3705a"/><path d="M235.173 154.667h150.4V169.6h-150.4zM235.173 196.267h77.867V211.2h-77.867z" style="" fill="#e8eae9" data-original="#e8eae9"/><path d="M167.973 322.133c-1.067 1.067-3.2 2.133-5.333 3.2-3.2 1.067-6.4 0-8.533-3.2l-24.533-23.467c-4.267-4.267-4.267-10.667 0-13.867 4.267-4.267 10.667-4.267 13.867 0l14.933 13.867c10.667-18.133 23.467-34.133 40.533-46.933 4.267-3.2 10.667-2.133 13.867 2.133s2.133 10.667-2.133 13.867c-17.067 13.867-30.933 30.933-40.533 51.2-.002 1.067-1.068 2.134-2.135 3.2z" style="" fill="#66c6b9" data-original="#66c6b9"/><path d="M235.173 259.2h150.4v14.933h-150.4zM235.173 300.8h77.867v14.933h-77.867z" style="" fill="#e8eae9" data-original="#e8eae9"/><path d="M167.973 426.667c-1.067 1.067-3.2 2.133-5.333 3.2-3.2 1.067-6.4 0-8.533-3.2l-24.533-24.533c-4.267-4.267-4.267-10.667 0-13.867 4.267-4.267 10.667-4.267 13.867 0l14.933 13.867C169.04 384 181.84 368 198.906 355.2c4.267-3.2 10.667-2.133 13.867 2.133 3.2 4.267 2.133 10.667-2.133 13.867-17.067 13.867-30.933 30.933-40.533 51.2-.001 2.133-1.067 3.2-2.134 4.267z" style="" fill="#f3705a" data-original="#f3705a"/><path d="M235.173 362.667h150.4V377.6h-150.4zM235.173 404.267h77.867V419.2h-77.867z" style="" fill="#e8eae9" data-original="#e8eae9"/></g></svg>