<svg xmlns="http://www.w3.org/2000/svg" version="1.1" xmlns:xlink="http://www.w3.org/1999/xlink" x="0" y="0" viewBox="0 0 512 512" style="enable-background:new 0 0 512 512" xml:space="preserve"><g><path fill="#5766cb" d="m446.798 437.052-28.497 17.108H293.226l-16.643-23.942c0-39.192-3.179-48.119-.108-68.396 1.013-6.597-9.405-26.748-3.674-30.189 5.848-3.504 11.864-6.618 17.86-9.373.021 0 .042-.011.063-.021 5.193-2.396 10.366-4.507 15.4-6.397 20.098-7.547 37.957-11.273 45.642-12.656a22.584 22.584 0 0 1 7.991 0c7.674 1.383 25.534 5.109 45.631 12.656 10.872 4.064 22.409 9.247 33.323 15.791 5.732 3.441-6.342 23.592-5.329 30.189 3.072 20.277 13.416 36.038 13.416 75.23z" opacity="1" data-original="#5766cb"/><path fill="#3d4fc3" d="M290.724 322.238c-4.433 3.716-7.452 9.975-8.233 17.036-2.396 21.839-7.463 72.664-7.463 114.885H252.64c0-39.192 20.763-72.061 23.835-92.338 1.013-6.597-9.405-26.748-3.674-30.189 5.848-3.504 11.864-6.618 17.86-9.373.021.001.042-.01.063-.021z" opacity="1" data-original="#3d4fc3"/><path fill="#ecf4ff" d="M323.243 363.376s5.551 10.054 14.519 20.83c5.043 6.06 11.167-.862 17.993 3.994 6.825-4.856 12.948 2.067 17.991-3.992 8.97-10.776 14.521-20.832 14.521-20.832v-41.141h-65.024z" opacity="1" data-original="#ecf4ff"/><path fill="#d57080" d="M373.744 384.205c-5.041 6.061-11.166 12.349-17.99 17.208-6.825-4.859-12.949-11.147-17.99-17.208l17.99-22.577z" opacity="1" data-original="#d57080"/><path fill="#d57080" d="m323.243 335.648 32.514 31.258 32.514-31.258-35.216-22.471" opacity="1" data-original="#d57080"/><path fill="#ecf4ff" d="M301.005 400.824c-2.797 11.495-7.779 34.59-7.779 53.337H252.64c0-39.192 6.46-86.365 9.532-106.641 1.013-6.597 4.898-12.445 10.629-15.886a46.754 46.754 0 0 1 9.806 6.755c13.711 12.318 18.187 30.885 19.623 43.034.77 6.491.327 13.057-1.225 19.401zM458.877 454.156h-40.576c0-18.738-4.985-41.839-7.784-53.334-1.545-6.345-1.99-12.906-1.224-19.392 1.732-14.673 7.907-38.724 29.419-49.794 5.733 3.44 9.619 9.282 10.629 15.888 3.075 20.274 9.536 67.448 9.536 106.632z" opacity="1" data-original="#ecf4ff"/><g fill="#ddeafb"><path d="M282.607 338.388c-.042.296-.085.591-.116.887-2.396 21.839-7.463 72.664-7.463 114.885H252.64c0-39.192 6.46-86.365 9.532-106.641 1.013-6.597 4.898-12.445 10.629-15.886a46.716 46.716 0 0 1 9.806 6.755zM405.388 315.838l-17.117 47.538-32.514-31.258-32.514 31.258-17.117-47.538c20.093-7.544 37.956-11.266 45.636-12.649a22.255 22.255 0 0 1 7.99 0c7.68 1.383 25.543 5.105 45.636 12.649z" fill="#ddeafb" opacity="1" data-original="#ddeafb"/></g><path fill="#9d6b6b" d="m477.162 180.261-55.09 62.437-123.129-59.908-72.708 1.034s-36.516-53.391-25.449-105.573c11.067-52.17 78.267-20.551 78.267-20.551s36.554-55.809 84.772-55.809c71.649 0 101.809 68.459 134.225 43.957 0 0 42.511 80.361-20.888 134.413z" opacity="1" data-original="#9d6b6b"/><path fill="#8b5e5e" d="m298.943 182.79-72.708 1.034s-36.516-53.391-25.449-105.573c11.067-52.17 78.267-20.551 78.267-20.551s-23.044 38.523 18.719 69.269c13.472 9.908 10.88 31.344 1.171 55.821z" opacity="1" data-original="#8b5e5e"/><path fill="#ffddce" d="M380.441 266.21v41.224c0 13.63-11.052 24.682-24.682 24.682-13.637 0-24.69-11.052-24.69-24.682V266.21z" opacity="1" data-original="#ffddce"/><path fill="#ffcbbe" d="M363.82 330.77a24.725 24.725 0 0 1-8.059 1.344c-13.637 0-24.69-11.052-24.69-24.682v-41.224h16.118v41.224c0 10.815 6.953 20.003 16.631 23.338zM252.634 231.883c-17.798 0-32.226-14.428-32.226-32.226 0-2.45.273-4.835.791-7.128 4.181-18.515 31.435-15.478 31.435 3.503H458.88c0-18.981 27.254-22.018 31.435-3.503a32.32 32.32 0 0 1 .791 7.128c0 17.798-14.428 32.226-32.226 32.226" opacity="1" data-original="#ffcbbe"/><path fill="#eaac9d" d="M458.689 217.969a7.5 7.5 0 0 1-4.303-1.358c-3.396-2.371-4.211-7.07-1.841-10.467.268-.383 2.728-3.825 6.738-6.692 6.127-4.381 12.995-5.383 19.332-2.826 3.842 1.55 5.699 5.92 4.149 9.761s-5.921 5.7-9.761 4.149c-3.865-1.56-8.15 4.182-8.192 4.24a7.44 7.44 0 0 1-6.122 3.193z" opacity="1" data-original="#eaac9d"/><path fill="#ffcbbe" d="M331.069 266.21h49.372v37.978h-49.372z" opacity="1" data-original="#ffcbbe"/><path fill="#ffddce" d="M458.879 158.176v57.778c0 41.514-33.65 75.164-75.164 75.164h-55.921c-41.514 0-75.164-33.65-75.164-75.164v-57.778c26.633 0 48.231-21.586 48.231-48.219 0 0 .386.361 1.147 1.022 8.077 6.967 58.988 47.197 156.871 47.197z" opacity="1" data-original="#ffddce"/><path fill="#ffcbbe" d="M377.173 291.118h-49.378c-41.514 0-75.164-33.65-75.164-75.164v-57.778c26.633 0 48.231-21.586 48.231-48.219 0 0 .386.361 1.147 1.022v104.975c0 41.514 33.65 75.164 75.164 75.164z" opacity="1" data-original="#ffcbbe"/><g fill="#eaafa5"><ellipse cx="423.785" cy="214.019" rx="16.881" ry="10.264" fill="#eaafa5" opacity="1" data-original="#eaafa5"/><ellipse cx="287.729" cy="214.019" rx="16.881" ry="10.264" fill="#eaafa5" opacity="1" data-original="#eaafa5"/></g><path fill="#d57080" d="M355.757 250.471c-7.339 0-14.238-2.858-19.428-8.047a7.917 7.917 0 0 1 .001-11.196c3.09-3.092 8.103-3.091 11.196 0a11.562 11.562 0 0 0 8.231 3.409c3.109 0 6.032-1.211 8.232-3.41a7.917 7.917 0 1 1 11.195 11.196c-5.189 5.19-12.088 8.048-19.427 8.048z" opacity="1" data-original="#d57080"/><path fill="#e4936b" d="M133.331 1.892c73.637 0 133.331 59.694 133.331 133.33v126.551c0 35.765-22.775 67.559-56.637 79.068l-76.693 26.066-76.693-26.066C22.776 329.332.002 297.538.002 261.773V135.222C.001 61.586 59.695 1.892 133.331 1.892z" opacity="1" data-original="#e4936b"/><path fill="#e27d47" d="m100.84 340.842 32.491 26.064-76.688-26.064C22.78 329.336 0 297.535 0 261.777V135.222C0 61.586 59.694 1.892 133.33 1.892c-31.194 0-56.485 59.694-56.485 133.33v126.555c.001 35.758 9.653 67.559 23.995 79.065z" opacity="1" data-original="#e27d47"/><path fill="#5766cb" d="M224.377 437.052 195.88 454.16H70.805l-16.643-23.942c0-39.192-3.179-48.119-.108-68.396 1.013-6.597-9.405-26.748-3.674-30.189 5.848-3.504 11.864-6.618 17.86-9.373.021 0 .042-.011.063-.021 5.193-2.396 10.366-4.507 15.4-6.397 20.098-7.547 37.957-11.273 45.642-12.656a22.584 22.584 0 0 1 7.991 0c7.674 1.383 25.534 5.109 45.631 12.656 10.872 4.064 22.409 9.247 33.323 15.791 5.732 3.441-6.342 23.592-5.329 30.189 3.072 20.277 13.416 36.038 13.416 75.23z" opacity="1" data-original="#5766cb"/><path fill="#3d4fc3" d="M68.304 322.239c-4.433 3.716-7.452 9.975-8.233 17.036-2.396 21.839-7.463 72.664-7.463 114.885H30.22c0-39.192 20.763-72.061 23.835-92.338 1.013-6.597-9.405-26.748-3.674-30.189 5.848-3.504 11.864-6.618 17.86-9.373.02 0 .041-.011.063-.021z" opacity="1" data-original="#3d4fc3"/><path fill="#ecf4ff" d="M100.823 363.376s5.551 10.054 14.519 20.83c5.043 6.06 11.167-.862 17.993 3.994 6.825-4.856 12.948 2.067 17.991-3.992 8.97-10.776 14.521-20.832 14.521-20.832v-41.141h-65.024z" opacity="1" data-original="#ecf4ff"/><path fill="#d57080" d="M151.323 384.205c-5.041 6.06-11.166 12.349-17.99 17.208-6.825-4.859-12.949-11.147-17.99-17.208l17.99-22.577z" opacity="1" data-original="#d57080"/><path fill="#d57080" d="m100.823 335.648 32.513 31.258 32.514-31.258-35.216-22.471" opacity="1" data-original="#d57080"/><path fill="#ecf4ff" d="M78.584 400.824c-2.797 11.495-7.779 34.59-7.779 53.337H30.22c0-39.192 6.46-86.365 9.532-106.641 1.013-6.597 4.898-12.445 10.629-15.886a46.754 46.754 0 0 1 9.806 6.755c13.711 12.318 18.187 30.885 19.623 43.034.77 6.491.326 13.057-1.226 19.401zM236.456 454.156H195.88c0-18.738-4.985-41.839-7.784-53.334-1.545-6.345-1.99-12.906-1.224-19.392 1.732-14.673 7.907-38.724 29.419-49.794 5.733 3.44 9.619 9.282 10.629 15.888 3.075 20.274 9.536 67.448 9.536 106.632z" opacity="1" data-original="#ecf4ff"/><g fill="#ddeafb"><path d="M60.186 338.388c-.042.296-.085.591-.116.887-2.396 21.839-7.463 72.664-7.463 114.885H30.22c0-39.192 6.46-86.365 9.532-106.641 1.013-6.597 4.898-12.445 10.629-15.886a46.709 46.709 0 0 1 9.805 6.755zM182.967 315.838l-17.117 47.538-32.514-31.258-32.514 31.258-17.117-47.538c20.093-7.544 37.956-11.266 45.636-12.649a22.255 22.255 0 0 1 7.99 0c7.681 1.383 25.544 5.105 45.636 12.649z" fill="#ddeafb" opacity="1" data-original="#ddeafb"/></g><path fill="#ffddce" d="M158.021 266.209v41.224c0 13.63-11.052 24.682-24.682 24.682-13.637 0-24.69-11.052-24.69-24.682v-41.224z" opacity="1" data-original="#ffddce"/><path fill="#ffcbbe" d="M141.399 330.77a24.725 24.725 0 0 1-8.059 1.344c-13.637 0-24.69-11.052-24.69-24.682v-41.224h16.118v41.224c.001 10.814 6.953 20.003 16.631 23.338z" opacity="1" data-original="#ffcbbe"/><path fill="#ffcbbe" d="M108.649 266.209h49.372v37.978h-49.372z" opacity="1" data-original="#ffcbbe"/><path fill="#ffddce" d="M236.454 159.317v56.644c0 41.506-33.648 75.161-75.161 75.161H105.37c-41.506 0-75.161-33.648-75.161-75.161v-55.998c12.798-.371 30.409-2.555 49.38-6.41 38.877-7.903 83.503-22.84 104.263-43.601-.001 0 20.536 41.967 52.602 49.365z" opacity="1" data-original="#ffddce"/><path fill="#ffcbbe" d="M154.749 291.122h-49.38c-41.506 0-75.161-33.648-75.161-75.161v-55.998c12.798-.371 30.409-2.555 49.38-6.41v62.408c0 41.506 33.647 75.161 75.161 75.161z" opacity="1" data-original="#ffcbbe"/><g fill="#eaafa5"><ellipse cx="194.081" cy="221.302" rx="16.881" ry="10.264" fill="#eaafa5" opacity="1" data-original="#eaafa5"/><ellipse cx="72.592" cy="221.302" rx="16.881" ry="10.264" fill="#eaafa5" opacity="1" data-original="#eaafa5"/></g><g fill="#2b4d66"><path d="M307.402 165.402c-5.386 0-9.768 7.263-9.768 16.191s4.382 16.191 9.768 16.191 9.767-7.263 9.767-16.191-4.381-16.191-9.767-16.191z" fill="#2b4d66" opacity="1" data-original="#2b4d66"/><ellipse cx="404.112" cy="181.593" rx="9.767" ry="16.191" fill="#2b4d66" opacity="1" data-original="#2b4d66"/><path d="M86.604 173.616c-.338 0-11.687.086-12.168.089a5.842 5.842 0 0 0-5.835 5.835 5.842 5.842 0 0 0 5.835 5.835h2.662a26.456 26.456 0 0 0-.392 4.564c0 9 4.441 16.323 9.899 16.323 5.459 0 9.899-7.322 9.899-16.323s-4.442-16.323-9.9-16.323zM192.227 173.705c-.534-.004-12.573-.089-12.911-.089-5.459 0-9.899 7.322-9.899 16.323s4.441 16.323 9.899 16.323 9.899-7.322 9.899-16.323c0-1.549-.132-3.083-.392-4.564h3.404a5.842 5.842 0 0 0 5.835-5.835 5.843 5.843 0 0 0-5.835-5.835z" fill="#2b4d66" opacity="1" data-original="#2b4d66"/></g><path fill="#d57080" d="M133.331 250.614c-7.081 0-13.738-2.757-18.744-7.764a7.917 7.917 0 0 1 11.197-11.196c2.016 2.016 4.696 3.127 7.548 3.127s5.532-1.11 7.549-3.127c3.091-3.092 8.104-3.092 11.196 0s3.092 8.104 0 11.196c-5.009 5.007-11.665 7.764-18.746 7.764z" opacity="1" data-original="#d57080"/><path fill="#8b5e5e" d="M32.145 453.733H467.25v56.375H32.145z" opacity="1" data-original="#8b5e5e"/><path fill="#9d6b6b" d="M479.21 464.995H20.186c-6.285 0-11.38-5.095-11.38-11.38v-14.468c0-6.285 5.095-11.38 11.38-11.38H479.21c6.285 0 11.38 5.095 11.38 11.38v14.468c0 6.285-5.095 11.38-11.38 11.38z" opacity="1" data-original="#9d6b6b"/><path fill="#8b5e5e" d="M42.172 464.998H20.185c-6.281 0-11.379-5.098-11.379-11.389v-14.461c0-6.291 5.098-11.379 11.379-11.379h21.987c-6.28 0-11.379 5.088-11.379 11.379v14.461c0 6.29 5.098 11.389 11.379 11.389z" opacity="1" data-original="#8b5e5e"/></g></svg>