<svg xmlns="http://www.w3.org/2000/svg" version="1.1" xmlns:xlink="http://www.w3.org/1999/xlink" x="0" y="0" viewBox="0 0 512 512" style="enable-background:new 0 0 512 512" xml:space="preserve"><g><linearGradient id="a" x1="108.462" x2="403.538" y1="365.557" y2="70.482" gradientUnits="userSpaceOnUse"><stop offset="0" stop-color="#d46669"/><stop offset="1" stop-color="#dd888a"/></linearGradient><linearGradient id="b" x1="157.051" x2="354.949" y1="298.949" y2="101.051" gradientUnits="userSpaceOnUse"><stop offset=".011" stop-color="#dcdce3"/><stop offset="1" stop-color="#ededf1"/></linearGradient><linearGradient id="c" x1="187.515" x2="324.485" y1="292.485" y2="155.514" gradientUnits="userSpaceOnUse"><stop offset=".011" stop-color="#606082"/><stop offset="1" stop-color="#83839e"/></linearGradient><g data-name="01-home"><path fill="url(#a)" d="M256 4C147.925 4 60 91.925 60 200c0 52.5 31.807 119.92 94.537 200.378a1065.816 1065.816 0 0 0 93.169 104.294 12 12 0 0 0 16.588 0 1065.816 1065.816 0 0 0 93.169-104.294C420.193 319.92 452 252.5 452 200 452 91.925 364.075 4 256 4z" opacity="1" data-original="url(#a)"/><circle cx="256" cy="200" r="140" fill="url(#b)" opacity="1" data-original="url(#b)"/><path fill="url(#c)" d="m352.072 183.121-88-80a12 12 0 0 0-16.144 0l-88 80a12.006 12.006 0 0 0-2.23 15.039 12.331 12.331 0 0 0 10.66 5.84H180v76a12 12 0 0 0 12 12h28a12 12 0 0 0 12-12v-44a12 12 0 0 1 12-12h24a12 12 0 0 1 12 12v44a12 12 0 0 0 12 12h28a12 12 0 0 0 12-12v-76h11.642a12.331 12.331 0 0 0 10.66-5.84 12.006 12.006 0 0 0-2.23-15.039z" opacity="1" data-original="url(#c)"/></g></g></svg>