<svg xmlns="http://www.w3.org/2000/svg" version="1.1" xmlns:xlink="http://www.w3.org/1999/xlink" x="0" y="0" viewBox="0 0 512 511" style="enable-background:new 0 0 512 512" xml:space="preserve"><g><path fill="#ffcf5d" d="M420.828 41.707v61.813l64.977 10.093c10.035 1.559 17.437 10.203 17.437 20.36v59.683h1.031a7.729 7.729 0 0 1 7.727 7.727v38.633a7.729 7.729 0 0 1-7.727 7.726H18.027a7.725 7.725 0 0 1-7.722-7.726V41.707C10.305 18.949 28.754.5 51.512.5h328.11c22.757 0 41.206 18.45 41.206 41.207zm0 0" opacity="1" data-original="#ffcf5d"/><path fill="#ff983b" d="M512 240.016v-38.63c0-4.269-3.46-7.726-7.727-7.726h-1.03v-59.687c0-10.157-7.403-18.801-17.438-20.36l-64.977-10.093V41.707c0-11.133-4.422-21.23-11.598-28.645-11.32 4.59-19.308 15.68-19.308 28.645v61.813c0 15.234 11.105 28.199 26.164 30.539l56.254 8.738v74.043H10.305v23.176a7.723 7.723 0 0 0 7.722 7.726h486.246a7.726 7.726 0 0 0 7.727-7.726zm0 0" opacity="1" data-original="#ff983b"/><path fill="#596775" d="M7.727 193.66H23.18a7.726 7.726 0 0 1 7.726 7.727v46.355H7.726A7.726 7.726 0 0 1 0 240.016v-38.63c0-4.269 3.46-7.726 7.727-7.726zm0 0" opacity="1" data-original="#596775"/><path fill="#35404a" d="M504.273 193.66H488.82a7.726 7.726 0 0 0-7.726 7.727v46.355h23.18a7.726 7.726 0 0 0 7.726-7.726v-38.63c0-4.269-3.46-7.726-7.727-7.726zm0 0" opacity="1" data-original="#35404a"/><path fill="#596775" d="M427.012 301.828c-29.824 0-54.086-24.262-54.086-54.086 0-29.82 24.262-54.082 54.086-54.082 29.82 0 54.082 24.262 54.082 54.082 0 29.824-24.262 54.086-54.082 54.086zm0 0" opacity="1" data-original="#596775"/><path fill="#35404a" d="M438.07 194.8c-6.34 11.712-4.566 26.653 5.332 36.552l-32.78 32.78c-9.9-9.898-24.84-11.675-36.556-5.331 5.122 24.535 26.91 43.027 52.946 43.027 29.824 0 54.086-24.262 54.086-54.086-.004-26.035-18.493-47.824-43.028-52.941zm0 0" opacity="1" data-original="#35404a"/><path fill="#e9e3d5" d="M450.191 247.742c0 12.801-10.379 23.18-23.18 23.18s-23.179-10.379-23.179-23.18c0-12.8 10.379-23.18 23.18-23.18s23.18 10.38 23.18 23.18zm0 0" opacity="1" data-original="#e9e3d5"/><path fill="#596775" d="M114.352 301.828c-29.825 0-54.086-24.262-54.086-54.086 0-29.82 24.261-54.082 54.086-54.082 29.824 0 54.085 24.262 54.085 54.082 0 29.824-24.265 54.086-54.085 54.086zm0 0" opacity="1" data-original="#596775"/><path fill="#35404a" d="M125.406 194.8c-6.34 11.712-4.566 26.653 5.336 36.552l-32.781 32.78c-9.899-9.898-24.84-11.675-36.555-5.331 5.117 24.535 26.91 43.027 52.946 43.027 29.824 0 54.085-24.262 54.085-54.086 0-26.035-18.492-47.824-43.03-52.941zm0 0" opacity="1" data-original="#35404a"/><path fill="#e9e3d5" d="M137.531 247.742c0 12.801-10.379 23.18-23.18 23.18-12.8 0-23.18-10.379-23.18-23.18 0-12.8 10.38-23.18 23.18-23.18 12.801 0 23.18 10.38 23.18 23.18zm0 0" opacity="1" data-original="#e9e3d5"/><path fill="#87f8f4" d="M259.605 46.86v200.882h82.415L300.813 46.86zm0 0" opacity="1" data-original="#87f8f4"/><path fill="#00d3d8" d="M300.813 46.86v169.98h-41.208v30.902h82.415V46.86zm0 0" opacity="1" data-original="#00d3d8"/><path fill="#ff983b" d="M342.02 39.133h-82.415a7.726 7.726 0 0 0-7.726 7.726v200.883h15.453V137h25.754v110.742h15.453V137h25.754v110.742h15.453V46.86a7.724 7.724 0 0 0-7.726-7.726zm-74.688 82.414V54.586h25.754v66.96zm41.207 0V54.586h25.754v66.96zm0 0" opacity="1" data-original="#ff983b"/><path fill="#00d3d8" d="M372.926 46.86h47.902v56.66h-47.902zm0 0" opacity="1" data-original="#00d3d8"/><path fill="#87f8f4" d="M10.305 46.86v82.413h218.394V46.86H10.305zm0 0" opacity="1" data-original="#87f8f4"/><path fill="#00d3d8" d="M197.793 46.86v51.507h-51.508V46.86H115.38v51.508H63.87V46.86H32.965v51.508h-22.66v30.906h218.394V46.86h-30.906zm0 0" opacity="1" data-original="#00d3d8"/><g fill="#ffcf5d"><path d="M138.559 39.133h15.453V137h-15.453zM56.145 39.133h15.453V137H56.145zm0 0" fill="#ffcf5d" opacity="1" data-original="#ffcf5d"/></g></g></svg>