<svg xmlns="http://www.w3.org/2000/svg" version="1.1" xmlns:xlink="http://www.w3.org/1999/xlink" x="0" y="0" viewBox="0 0 510 510" style="enable-background:new 0 0 512 512" xml:space="preserve"><g><path fill="#565686" d="M150 56.09V0H60v103.254l45 8.246z" opacity="1" data-original="#565686"/><path fill="#f0f8ff" d="M60 196.271V435l97.5 26 97.5-26 27-168.114-27-168.115-97.5 23.729z" opacity="1" data-original="#f0f8ff"/><path fill="#dceeff" d="m450 196.271-97.5-82.604L255 98.771V435l97.5 26 97.5-26V196.271z" opacity="1" data-original="#dceeff"/><path fill="#ff9966" d="M0 134.697v91.574l255-127.5 25-48.854-25-48.853L0 134.697z" opacity="1" data-original="#ff9966"/><path fill="#ff6666" d="M510 134.697 255 1.064v97.707l255 127.5v-91.574z" opacity="1" data-original="#ff6666"/><path fill="#bde55e" d="M291.339 367.994C278.487 376.56 270 391.181 270 407.75V435l26.667 16.333L330 435l12-19-12-26z" opacity="1" data-original="#bde55e"/><path fill="#5ac77f" d="M390 407.75c0-16.569-8.487-31.19-21.339-39.756L330 390v45l30 16.333L390 435z" opacity="1" data-original="#5ac77f"/><path fill="#fdd9c8" d="M285 345c0 24.814 20.188 45 45 45l12-42.333L330 300c-24.812 0-45 20.186-45 45z" opacity="1" data-original="#fdd9c8"/><path fill="#fcbbaf" d="M330 300v90c24.814 0 45-20.186 45-45s-20.186-45-45-45z" opacity="1" data-original="#fcbbaf"/><path fill="#ff9966" d="m254.998 190.573-6.677-7.224c-14.759-15.968-38.687-15.968-53.446 0-14.811 16.002-14.694 41.919 0 57.814l60.123 65.049.002-.002L270 240l-15-49.43z" opacity="1" data-original="#ff9966"/><path fill="#ff6666" d="M315.119 183.35c-14.759-15.968-38.687-15.968-53.446 0L255 190.57v115.64l60.119-65.046c14.76-15.968 14.76-41.857 0-57.814z" opacity="1" data-original="#ff6666"/><path fill="#80eaff" d="M141.339 367.994C128.487 376.56 120 391.181 120 407.75V435l26.667 16.333L180 435l12-19-12-26z" opacity="1" data-original="#80eaff"/><path fill="#4dc3ff" d="M240 407.75c0-16.569-8.487-31.19-21.339-39.756L180 390v45l30 16.333L240 435z" opacity="1" data-original="#4dc3ff"/><path fill="#fdd1a3" d="M135 345c0 24.814 20.188 45 45 45l12-42.333L180 300c-24.812 0-45 20.186-45 45z" opacity="1" data-original="#fdd1a3"/><path fill="#ffbb85" d="M180 300v90c24.814 0 45-20.186 45-45s-20.186-45-45-45z" opacity="1" data-original="#ffbb85"/><path fill="#565686" d="M30 435v75h225l33-37.5-33-37.5H30z" opacity="1" data-original="#565686"/><path fill="#454572" d="M480 435H255v75h225v-75z" opacity="1" data-original="#454572"/></g></svg>