<svg xmlns="http://www.w3.org/2000/svg" version="1.1" xmlns:xlink="http://www.w3.org/1999/xlink" x="0" y="0" viewBox="0 0 512 512" style="enable-background:new 0 0 512 512" xml:space="preserve"><g><path d="M487.781 484h-464V268h96.001l135.999-136 136.003 136h95.997z" style="" fill="#e6be94" data-original="#e6be94"/><path d="M207.781 388h96v96h-96z" style="" fill="#996459" data-original="#996459"/><path d="M301.781 356h-92a2 2 0 0 0-2 2v30h96v-30a2 2 0 0 0-2-2z" style="" fill="#4bb9ec" data-original="#4bb9ec"/><path d="m329.617 68 13.039-19.562c1.633-2.453 1.789-5.609.398-8.211S338.953 36 336 36h-80c-4.422 0-8 3.578-8 8v48c0 4.422 3.578 8 8 8h80a7.998 7.998 0 0 0 6.657-12.438L329.617 68z" style="" fill="#ff4f19" data-original="#ff4f19"/><path d="M256 140c-4.422 0-8-3.578-8-8V28c0-4.422 3.578-8 8-8s8 3.578 8 8v104c0 4.422-3.578 8-8 8z" style="" fill="#5c546a" data-original="#5c546a"/><path d="M288.391 168.938a7.992 7.992 0 0 1 7.391-4.938h152a8.008 8.008 0 0 1 6.75 3.703l56 88a8.017 8.017 0 0 1 .266 8.148 8.01 8.01 0 0 1-7.016 4.148h-120a7.994 7.994 0 0 1-5.656-2.344l-88-88a7.985 7.985 0 0 1-1.735-8.717zM223.391 168.938A7.992 7.992 0 0 0 216 164H64a8.008 8.008 0 0 0-6.75 3.703l-56 88a8.017 8.017 0 0 0-.266 8.148A8.013 8.013 0 0 0 8 268h120a7.994 7.994 0 0 0 5.656-2.344l88-88a7.99 7.99 0 0 0 1.735-8.718z" style="" fill="#ff4f19" data-original="#ff4f19"/><path d="M391.891 275.891a7.97 7.97 0 0 1-5.656-2.344L256 143.313 125.766 273.547c-3.125 3.125-8.188 3.125-11.313 0s-3.125-8.188 0-11.313l135.891-135.891a7.998 7.998 0 0 1 11.313 0l135.891 135.891a7.998 7.998 0 0 1 0 11.313 7.98 7.98 0 0 1-5.657 2.344z" style="" fill="#e3001e" data-original="#e3001e"/><circle cx="256.001" cy="268" r="48" style="" fill="#ffebb7" data-original="#ffebb7"/><path d="M256 236c-4.422 0-8 3.578-8 8v16h-16c-4.422 0-8 3.578-8 8s3.578 8 8 8h24c4.422 0 8-3.578 8-8v-24c0-4.422-3.578-8-8-8z" style="" fill="#5c546a" data-original="#5c546a"/><path d="M375.781 320c0-11.046-8.954-20-20-20s-20 8.954-20 20c0 1.37.141 2.707.403 4h-.403v32h40v-32h-.403c.263-1.293.403-2.63.403-4z" style="" fill="#4bb9ec" data-original="#4bb9ec"/><path d="M356 292c-15.438 0-28 12.562-28 28v36c0 4.422 3.578 8 8 8h40c4.422 0 8-3.578 8-8v-36c0-15.438-12.562-28-28-28zm0 16c6.617 0 12 5.383 12 12v4h-24v-4c0-6.617 5.383-12 12-12zm-12 40v-8h24v8h-24z" style="" fill="#7e5c62" data-original="#7e5c62"/><path d="M136.001 396h40v48h-40z" style="" fill="#4bb9ec" data-original="#4bb9ec"/><path d="M176 388h-40c-4.422 0-8 3.578-8 8v48c0 4.422 3.578 8 8 8h40c4.422 0 8-3.578 8-8v-48c0-4.422-3.578-8-8-8zm-8 16v8h-24v-8h24zm-24 32v-8h24v8h-24z" style="" fill="#7e5c62" data-original="#7e5c62"/><path d="M63.782 396h40v48h-40z" style="" fill="#4bb9ec" data-original="#4bb9ec"/><path d="M103.781 388h-40c-4.422 0-8 3.578-8 8v48c0 4.422 3.578 8 8 8h40c4.422 0 8-3.578 8-8v-48c0-4.422-3.578-8-8-8zm-8 16v8h-24v-8h24zm-24 32v-8h24v8h-24z" style="" fill="#7e5c62" data-original="#7e5c62"/><path d="M408 396h40v48h-40z" style="" fill="#4bb9ec" data-original="#4bb9ec"/><path d="M448 388h-40c-4.422 0-8 3.578-8 8v48c0 4.422 3.578 8 8 8h40c4.422 0 8-3.578 8-8v-48c0-4.422-3.578-8-8-8zm-8 16v8h-24v-8h24zm-24 32v-8h24v8h-24z" style="" fill="#7e5c62" data-original="#7e5c62"/><path d="M335.782 396h40v48h-40z" style="" fill="#4bb9ec" data-original="#4bb9ec"/><path d="M375.781 388h-40c-4.422 0-8 3.578-8 8v48c0 4.422 3.578 8 8 8h40c4.422 0 8-3.578 8-8v-48c0-4.422-3.578-8-8-8zm-8 16v8h-24v-8h24zm-24 32v-8h24v8h-24z" style="" fill="#7e5c62" data-original="#7e5c62"/><path d="M447.563 320c0-11.046-8.954-20-20-20s-20 8.954-20 20c0 1.37.141 2.707.403 4h-.403v32h40v-32h-.403c.262-1.293.403-2.63.403-4z" style="" fill="#4bb9ec" data-original="#4bb9ec"/><path d="M427.781 292c-15.438 0-28 12.562-28 28v36c0 4.422 3.578 8 8 8h40c4.422 0 8-3.578 8-8v-36c0-15.438-12.562-28-28-28zm0 16c6.617 0 12 5.383 12 12v4h-24v-4c0-6.617 5.383-12 12-12zm-12 40v-8h24v8h-24z" style="" fill="#7e5c62" data-original="#7e5c62"/><path d="M103.563 320c0-11.046-8.954-20-20-20s-20 8.954-20 20c0 1.37.141 2.707.403 4h-.403v32h40v-32h-.403c.262-1.293.403-2.63.403-4z" style="" fill="#4bb9ec" data-original="#4bb9ec"/><path d="M83.781 292c-15.438 0-28 12.562-28 28v36c0 4.422 3.578 8 8 8h40c4.422 0 8-3.578 8-8v-36c0-15.438-12.562-28-28-28zm0 16c6.617 0 12 5.383 12 12v4h-24v-4c0-6.617 5.383-12 12-12zm-12 40v-8h24v8h-24z" style="" fill="#7e5c62" data-original="#7e5c62"/><path d="M175.344 320c0-11.046-8.954-20-20-20s-20 8.954-20 20c0 1.37.141 2.707.403 4h-.403v32h40v-32h-.403c.262-1.293.403-2.63.403-4z" style="" fill="#4bb9ec" data-original="#4bb9ec"/><path d="M155.563 292c-15.438 0-28 12.562-28 28v36c0 4.422 3.578 8 8 8h40c4.422 0 8-3.578 8-8v-36c0-15.438-12.563-28-28-28zm0 16c6.617 0 12 5.383 12 12v4h-24v-4c0-6.617 5.382-12 12-12zm-12 40v-8h24v8h-24zM256 324c-30.879 0-56-25.121-56-56s25.121-56 56-56 56 25.121 56 56-25.121 56-56 56zm0-96c-22.055 0-40 17.943-40 40s17.945 40 40 40 40-17.943 40-40-17.945-40-40-40zM288 348h-64c-13.234 0-24 10.766-24 24v112c0 4.422 3.578 8 8 8s8-3.578 8-8v-88h31.781v88h16v-88H296v88c0 4.422 3.578 8 8 8s8-3.578 8-8V372c0-13.234-10.766-24-24-24zm8 32h-80v-8c0-4.414 3.586-8 8-8h64c4.414 0 8 3.586 8 8v8z" style="" fill="#7e5c62" data-original="#7e5c62"/><path d="M504 492H8c-4.422 0-8-3.578-8-8s3.578-8 8-8h496c4.422 0 8 3.578 8 8s-3.578 8-8 8z" style="" fill="#5c546a" data-original="#5c546a"/></g></svg>