<svg xmlns="http://www.w3.org/2000/svg" version="1.1" xmlns:xlink="http://www.w3.org/1999/xlink" x="0" y="0" viewBox="0 0 512 512" style="enable-background:new 0 0 512 512" xml:space="preserve"><g><linearGradient id="a"><stop offset="0" stop-color="#ffd459"/><stop offset=".23" stop-color="#ffd355"/><stop offset=".436" stop-color="#ffcf4a"/><stop offset=".634" stop-color="#ffc838"/><stop offset=".825" stop-color="#ffbf1f"/><stop offset="1" stop-color="#ffb400"/></linearGradient><linearGradient xlink:href="#a" id="i" x1="203.931" x2="203.931" y1="380.503" y2="569.293" gradientUnits="userSpaceOnUse"/><linearGradient id="b"><stop offset="0" stop-color="#e58200" stop-opacity="0"/><stop offset=".04" stop-color="#e27f04" stop-opacity=".039"/><stop offset=".467" stop-color="#c15d2f" stop-opacity=".467"/><stop offset=".802" stop-color="#ad4949" stop-opacity=".8"/><stop offset="1" stop-color="#a64153"/></linearGradient><linearGradient xlink:href="#b" id="j" x1="222.766" x2="187.824" y1="385.863" y2="171.701" gradientUnits="userSpaceOnUse"/><linearGradient xlink:href="#b" id="k" x1="211.793" x2="-42.113" y1="459.937" y2="303.405" gradientUnits="userSpaceOnUse"/><linearGradient xlink:href="#b" id="l" x1="373.215" x2="231.15" y1="426.482" y2="338.9" gradientUnits="userSpaceOnUse"/><linearGradient id="c"><stop offset="0" stop-color="#45425a"/><stop offset="1" stop-color="#2d3251"/></linearGradient><linearGradient xlink:href="#c" id="m" x1="53.574" x2="194.671" y1="326.518" y2="494.775" gradientUnits="userSpaceOnUse"/><linearGradient id="d"><stop offset="0" stop-color="#8be1e2"/><stop offset=".187" stop-color="#87e1e1"/><stop offset=".356" stop-color="#7ce2dd"/><stop offset=".517" stop-color="#6ae2d7"/><stop offset=".674" stop-color="#50e4ce"/><stop offset=".828" stop-color="#2fe5c2"/><stop offset=".977" stop-color="#07e7b4"/><stop offset="1" stop-color="#00e7b2"/></linearGradient><linearGradient xlink:href="#d" id="n" x1="36.113" x2="145.252" y1="317.237" y2="426.376" gradientUnits="userSpaceOnUse"/><linearGradient xlink:href="#c" id="o" x1="269.263" x2="410.361" y1="326.518" y2="494.775" gradientUnits="userSpaceOnUse"/><linearGradient xlink:href="#d" id="p" x1="251.803" x2="360.941" y1="317.237" y2="426.376" gradientUnits="userSpaceOnUse"/><linearGradient id="e"><stop offset="0" stop-color="#ff6e3a"/><stop offset=".16" stop-color="#ff6440"/><stop offset=".427" stop-color="#ff4b52"/><stop offset=".766" stop-color="#ff216e"/><stop offset="1" stop-color="#ff0084"/></linearGradient><linearGradient xlink:href="#e" id="q" x1="167.834" x2="240.03" y1="409.814" y2="409.814" gradientUnits="userSpaceOnUse"/><linearGradient xlink:href="#c" id="r" x1="158.895" x2="248.969" y1="405.344" y2="405.344" gradientUnits="userSpaceOnUse"/><linearGradient xlink:href="#a" id="s" x1="182.972" x2="199.274" y1="378.665" y2="378.665" gradientUnits="userSpaceOnUse"/><linearGradient xlink:href="#c" id="t" x1="203.931" x2="203.931" y1="471.367" y2="532.068" gradientUnits="userSpaceOnUse"/><linearGradient xlink:href="#e" id="u" x1="24.541" x2="80.607" y1="235.221" y2="291.286" gradientUnits="userSpaceOnUse"/><linearGradient id="f"><stop offset="0" stop-color="#fffcf8"/><stop offset=".188" stop-color="#faf8f6"/><stop offset=".404" stop-color="#eceef2"/><stop offset=".635" stop-color="#d5dcea"/><stop offset=".875" stop-color="#b5c4df"/><stop offset="1" stop-color="#a1b5d8"/></linearGradient><linearGradient xlink:href="#f" id="v" x1="106.107" x2="162.172" y1="235.221" y2="291.286" gradientUnits="userSpaceOnUse"/><linearGradient xlink:href="#e" id="w" x1="187.672" x2="243.737" y1="235.221" y2="291.286" gradientUnits="userSpaceOnUse"/><linearGradient xlink:href="#f" id="x" x1="269.237" x2="325.302" y1="235.221" y2="291.286" gradientUnits="userSpaceOnUse"/><linearGradient xlink:href="#e" id="y" x1="350.802" x2="406.867" y1="235.221" y2="291.286" gradientUnits="userSpaceOnUse"/><linearGradient xlink:href="#e" id="z" x1="146.927" x2="343.639" y1="163.809" y2="360.521" gradientUnits="userSpaceOnUse"/><linearGradient id="g"><stop offset="0" stop-color="#e58200" stop-opacity="0"/><stop offset=".438" stop-color="#c4602c" stop-opacity=".439"/><stop offset=".795" stop-color="#ae4948" stop-opacity=".796"/><stop offset="1" stop-color="#a64153"/></linearGradient><linearGradient xlink:href="#g" id="A" x1="372.595" x2="187.619" y1="262.095" y2="99.455" gradientUnits="userSpaceOnUse"/><linearGradient xlink:href="#f" id="B" x1="203.914" x2="203.914" y1="151.38" y2="231.426" gradientUnits="userSpaceOnUse"/><linearGradient id="C" x1="304.247" x2="92.206" y1="230.53" y2="18.489" gradientUnits="userSpaceOnUse"><stop offset="0" stop-color="#a1b5d8" stop-opacity="0"/><stop offset=".034" stop-color="#9fb3d5" stop-opacity=".035"/><stop offset=".452" stop-color="#8898af" stop-opacity=".451"/><stop offset=".788" stop-color="#798898" stop-opacity=".788"/><stop offset="1" stop-color="#748290"/></linearGradient><linearGradient xlink:href="#e" id="D" x1="203.914" x2="203.914" y1="151.38" y2="231.426" gradientUnits="userSpaceOnUse"/><linearGradient xlink:href="#g" id="E" x1="268.602" x2="139.468" y1="217.702" y2="96.246" gradientUnits="userSpaceOnUse"/><linearGradient id="h"><stop offset="0" stop-color="#ffc738"/><stop offset=".487" stop-color="#ffc636"/><stop offset=".675" stop-color="#ffc22f"/><stop offset=".81" stop-color="#ffbb23"/><stop offset=".92" stop-color="#ffb112"/><stop offset="1" stop-color="#ffa700"/></linearGradient><radialGradient xlink:href="#h" id="F" cx="203.914" cy="83.531" r="83.531" gradientUnits="userSpaceOnUse"/><radialGradient xlink:href="#h" id="G" cx="194.99" cy="16.573" r="141.722" gradientUnits="userSpaceOnUse"/><linearGradient xlink:href="#b" id="H" x1="241.963" x2="135.029" y1="146.788" y2="39.854" gradientUnits="userSpaceOnUse"/><linearGradient xlink:href="#b" id="I" x1="269.565" x2="166.422" y1="119.785" y2="16.642" gradientUnits="userSpaceOnUse"/><linearGradient xlink:href="#f" id="J" x1="156.756" x2="199.107" y1="83.755" y2="83.755" gradientUnits="userSpaceOnUse"/><linearGradient xlink:href="#f" id="K" x1="208.712" x2="251.062" y1="83.755" y2="83.755" gradientUnits="userSpaceOnUse"/><path fill="url(#i)" d="M30.719 245.309h346.426V512H30.719zm0 0" opacity="1" data-original="url(#i)"/><path fill="url(#j)" d="M30.719 295.531 247.188 512h129.957V245.309H30.719zm0 0" opacity="1" data-original="url(#j)"/><path fill="url(#k)" d="M147.45 306.137c-2-3.473-5.743-5.817-10.036-5.817H54.727c-6.403 0-11.594 5.192-11.594 11.594v130.559c0 4.297 2.344 8.035 5.812 10.039L108.437 512h244.88zm0 0" opacity="1" data-original="url(#k)"/><path fill="url(#l)" d="M377.145 320.14V512h-53.02l-59.496-59.492c-3.465-2-5.809-5.738-5.809-10.031V311.91c0-6.394 5.192-11.59 11.59-11.59h82.695c4.293 0 8.032 2.348 10.032 5.813zm0 0" opacity="1" data-original="url(#l)"/><path fill="url(#m)" d="M137.414 454.063H54.727c-6.403 0-11.594-5.188-11.594-11.59V311.914c0-6.402 5.191-11.594 11.594-11.594h82.687c6.402 0 11.59 5.192 11.59 11.594v130.559c0 6.402-5.188 11.59-11.59 11.59zm0 0" opacity="1" data-original="url(#m)"/><path fill="url(#n)" d="M128.922 443.723H63.215a9.66 9.66 0 0 1-9.66-9.66V320.323a9.66 9.66 0 0 1 9.66-9.66h65.707a9.66 9.66 0 0 1 9.66 9.66v113.738a9.66 9.66 0 0 1-9.66 9.66zm0 0" opacity="1" data-original="url(#n)"/><path fill="url(#o)" d="M353.102 454.063h-82.688c-6.402 0-11.59-5.188-11.59-11.59V311.914c0-6.402 5.188-11.594 11.59-11.594h82.688c6.402 0 11.593 5.192 11.593 11.594v130.559c0 6.402-5.191 11.59-11.593 11.59zm0 0" opacity="1" data-original="url(#o)"/><path fill="url(#p)" d="M344.613 443.723h-65.71c-5.333 0-9.657-4.325-9.657-9.66V320.323c0-5.336 4.324-9.66 9.656-9.66h65.711a9.66 9.66 0 0 1 9.66 9.66v113.738a9.66 9.66 0 0 1-9.66 9.66zm0 0" opacity="1" data-original="url(#p)"/><path fill="url(#q)" d="M167.832 511.996v-189.25c0-8.348 6.77-15.113 15.117-15.113h41.965c8.348 0 15.117 6.765 15.117 15.113v189.25zm0 0" opacity="1" data-original="url(#q)"/><path fill="url(#r)" d="M248.969 511.996h-17.88V327.898c0-6.23-5.093-11.328-11.323-11.328h-31.664c-6.258 0-11.329 5.075-11.329 11.328v184.098h-17.878V316.078c0-9.601 7.785-17.383 17.382-17.383h55.309c9.601 0 17.383 7.782 17.383 17.383zm0 0" opacity="1" data-original="url(#r)"/><path fill="url(#s)" d="M199.273 378.664c0 4.5-3.648 8.152-8.152 8.152-4.5 0-8.148-3.652-8.148-8.152s3.648-8.152 8.148-8.152a8.153 8.153 0 0 1 8.152 8.152zm0 0" opacity="1" data-original="url(#s)"/><path fill="url(#t)" d="M389.438 477.258v21.781c0 7.156-5.801 12.957-12.958 12.957H31.38c-7.152 0-12.953-5.8-12.953-12.957v-21.781c0-7.156 5.8-12.957 12.953-12.957H376.48c7.157 0 12.957 5.8 12.957 12.957zm0 0" opacity="1" data-original="url(#t)"/><path fill="url(#u)" d="M40.785 295.645C18.258 295.645 0 277.387 0 254.863v-23.691h81.566v23.691c0 22.524-18.257 40.782-40.78 40.782zm0 0" opacity="1" data-original="url(#u)"/><path fill="url(#v)" d="M122.348 295.645c-22.524 0-40.782-18.258-40.782-40.782v-23.691h81.567v23.691c0 22.524-18.262 40.782-40.785 40.782zm0 0" opacity="1" data-original="url(#v)"/><path fill="url(#w)" d="M203.914 295.645c-22.523 0-40.781-18.258-40.781-40.782v-23.691h81.562v23.691c0 22.524-18.257 40.782-40.78 40.782zm0 0" opacity="1" data-original="url(#w)"/><path fill="url(#x)" d="M285.48 295.645c-22.523 0-40.785-18.258-40.785-40.782v-23.691h81.567v23.691c0 22.524-18.258 40.782-40.782 40.782zm0 0" opacity="1" data-original="url(#x)"/><path fill="url(#y)" d="M367.043 295.645c-22.523 0-40.781-18.258-40.781-40.782v-23.691h81.566v23.691c-.004 22.524-18.262 40.782-40.785 40.782zm0 0" opacity="1" data-original="url(#y)"/><path fill="url(#z)" d="M338.059 140.887a20.363 20.363 0 0 0-16.118-7.914H85.887a20.376 20.376 0 0 0-16.121 7.914L0 231.172h407.824zm0 0" opacity="1" data-original="url(#z)"/><path fill="url(#A)" d="M338.059 140.887a20.363 20.363 0 0 0-16.118-7.914H136.598a84.397 84.397 0 0 0 10.78 12.039l86.161 86.16h174.285zm0 0" opacity="1" data-original="url(#A)"/><path fill="url(#B)" d="M284.426 140.887c-2.317-4.992-5.887-7.914-9.676-7.914H133.074c-3.785 0-7.355 2.922-9.672 7.914l-41.87 90.285h244.765zm0 0" opacity="1" data-original="url(#B)"/><path fill="url(#C)" d="M296.496 294.125c17.168-4.809 29.766-20.559 29.766-39.262v-23.691h.035l-41.871-90.285c-2.317-4.992-5.89-7.914-9.676-7.914H136.598a84.397 84.397 0 0 0 10.78 12.039l86.161 86.16h11.156v11.156zm0 0" opacity="1" data-original="url(#C)"/><path fill="url(#D)" d="M230.742 140.887c-.77-4.992-1.96-7.914-3.222-7.914h-47.211c-1.262 0-2.454 2.922-3.227 7.914l-13.953 90.285h81.566zm0 0" opacity="1" data-original="url(#D)"/><path fill="url(#E)" d="m177.086 140.887-4.527 29.3 60.984 60.985h11.152l-13.953-90.285c-.77-4.992-1.96-7.914-3.222-7.914h-47.211c-1.262 0-2.454 2.922-3.223 7.914zm0 0" opacity="1" data-original="url(#E)"/><path fill="url(#F)" d="M287.445 83.531c0 46.133-37.398 83.531-83.53 83.531-46.134 0-83.532-37.398-83.532-83.53S157.78 0 203.914 0s83.531 37.398 83.531 83.531zm0 0" opacity="1" data-original="url(#F)"/><path fill="url(#G)" d="M271.977 83.531c0 37.59-30.473 68.063-68.063 68.063s-68.062-30.473-68.062-68.063 30.472-68.062 68.062-68.062c37.59 0 68.063 30.472 68.063 68.062zm0 0" opacity="1" data-original="url(#G)"/><path fill="url(#H)" d="M279.836 118.094c-8.125 17.941-22.43 32.492-40.191 40.941-10.829 5.149-22.95 8.031-35.739 8.031-2.914 0-5.789-.152-8.625-.445l-24.687-24.687c-2.973-2.332-4.805-6.02-4.555-10.098l3.258-52.602a18.095 18.095 0 0 1-.645-.695 23.282 23.282 0 0 1-2.105-2.105c-5.887-5.149-9.79-14.16-9.79-24.422 0-16.008 9.477-28.985 21.173-28.985 5.148 0 9.863 2.52 13.535 6.696zm0 0" opacity="1" data-original="url(#H)"/><path fill="url(#I)" d="M279.836 118.094c-8.125 17.941-22.43 32.492-40.191 40.941l-17.098-17.101c-2.965-2.329-4.805-6.02-4.547-10.098l3.25-52.602c-.21-.226-.43-.457-.645-.695a24.338 24.338 0 0 1-2.105-2.105c-5.883-5.149-9.79-14.16-9.79-24.422 0-1.496.087-3.121.243-4.801.809-8.484 3.586-18.57 7.555-23.008 1.406-1.566 3.949-.672 4.176 1.332 1.035.133 5.07 4.438 5.421 4.711v-3.39c0-2.083 1.665-3.825 3.747-3.829h.07c1.57.004 2.906.996 3.457 2.38.957.382 5.293 4.816 5.687 5.288V25.82c0-2.203 2.727-3.261 4.2-1.62l42.129 42.128a83.408 83.408 0 0 1 1.824 17.426c0 12.242-2.64 23.867-7.383 34.34zm0 0" opacity="1" data-original="url(#I)"/><path fill="url(#J)" d="M199.105 52.012c0-16.008-9.48-28.985-21.175-28.985-11.696 0-21.176 12.977-21.176 28.985 0 11.816 5.172 21.976 12.586 26.488l-3.3 53.332c-.423 6.856 5.023 12.648 11.89 12.648 6.87 0 12.316-5.789 11.89-12.648l-3.3-53.332c7.414-4.512 12.585-14.668 12.585-26.488zm0 0" opacity="1" data-original="url(#J)"/><path fill="url(#K)" d="M251.063 52.012c0-9.063-3.04-22.492-7.797-27.809-1.473-1.644-4.2-.586-4.2 1.617v29.86c0 1.48-1.14 2.77-2.617 2.812a2.699 2.699 0 0 1-2.781-2.699V26.852c0-2.079-1.664-3.817-3.742-3.825h-.078c-2.082.008-3.743 1.746-3.743 3.825V55.68c0 1.48-1.14 2.77-2.617 2.812a2.699 2.699 0 0 1-2.781-2.699V25.82c0-2.203-2.73-3.258-4.2-1.617-4.757 5.317-7.796 18.746-7.796 27.809 0 11.82 5.172 21.976 12.586 26.488l-3.3 53.336c-.427 6.855 5.019 12.648 11.89 12.648 6.867 0 12.312-5.793 11.886-12.648l-3.3-53.336c7.418-4.512 12.59-14.668 12.59-26.488zm0 0" opacity="1" data-original="url(#K)"/></g></svg>