<svg xmlns="http://www.w3.org/2000/svg" version="1.1" xmlns:xlink="http://www.w3.org/1999/xlink" x="0" y="0" viewBox="0 0 64 64" style="enable-background:new 0 0 512 512" xml:space="preserve"><g><g data-name="Cyber Monday flat 4"><g data-name="27_Gift"><path fill="#f4b400" d="M51 34v14H15V21h36v7z" opacity="1" data-original="#f4b400"/><path fill="#f29500" d="M18 20h-3v27h36v-3h-9a24 24 0 0 1-24-24z" opacity="1" data-original="#f29500"/><path fill="#f29500" d="M15 21h36v2H15z" opacity="1" data-original="#f29500"/><path fill="#db4437" d="M30 21h6v26h-6z" opacity="1" data-original="#db4437"/><path fill="#c62e26" d="M30 47h6v-3.756a23.807 23.807 0 0 1-6-2.463zM30 21h6v2h-6z" opacity="1" data-original="#c62e26"/><path fill="#db4437" d="M32 3a5 5 0 0 1 5 5v5H27V8a5 5 0 0 1 5-5z" opacity="1" data-original="#db4437"/><path fill="#f4b400" d="M32 3a5 5 0 0 1 5 5v5H27V8a5 5 0 0 1 5-5z" opacity="1" data-original="#f4b400"/><path fill="#a51e1b" d="M32 3a5 5 0 0 1 5 5v5H27V8a5 5 0 0 1 5-5z" opacity="1" data-original="#a51e1b"/><ellipse cx="42" cy="8" fill="#db4437" rx="8.394" ry="5.246" transform="rotate(-45 42 8.009)" opacity="1" data-original="#db4437"/><path fill="#a51e1b" d="M37.31 14.725c2.256.85 5.687-.3 8.4-3.011a11.375 11.375 0 0 0 3.074-5.193c-2.255-.85-5.686.3-8.4 3.011a11.375 11.375 0 0 0-3.074 5.193z" opacity="1" data-original="#a51e1b"/><ellipse cx="23" cy="8" fill="#db4437" rx="5.246" ry="8.394" transform="rotate(-45 23 8.005)" opacity="1" data-original="#db4437"/><path fill="#a51e1b" d="M27.69 14.725c-2.256.85-5.687-.3-8.4-3.011a11.375 11.375 0 0 1-3.074-5.193c2.255-.85 5.686.3 8.4 3.011a11.375 11.375 0 0 1 3.074 5.193z" opacity="1" data-original="#a51e1b"/><path fill="#f4b400" d="M41 21H11v-8h44v8h-7.983" opacity="1" data-original="#f4b400"/><path fill="#db4437" d="M28 13h10v8H28z" opacity="1" data-original="#db4437"/><path fill="#f0d0b4" d="M24 47h5.929a3.988 3.988 0 0 0 3.988-3.988V43a4 4 0 0 0-4-4H16l-5 5-2 .012V61l12.033-.026 26.521-8.6a.982.982 0 0 0 .443-.3L58.79 39.369a.763.763 0 0 0-.1-1.086 5.71 5.71 0 0 0-7.8.589l-7.42 8.112-.036.016H28" opacity="1" data-original="#f0d0b4"/><path fill="#ecc19c" d="M58.256 38 48 50.076a.982.982 0 0 1-.443.3l-26.521 8.6L9 59v2l12.033-.026 26.521-8.6a.982.982 0 0 0 .443-.3L58.79 39.369a.763.763 0 0 0-.1-1.086c-.138-.111-.29-.189-.434-.283z" opacity="1" data-original="#ecc19c"/><path fill="#4285f4" d="M1 49v-7h8v21H1v-6z" opacity="1" data-original="#4285f4"/><path fill="#2b69b2" d="M4 49v-7H1v21h3v-6z" opacity="1" data-original="#2b69b2"/><g fill="#db4437"><path d="M58 16h5v2h-5zM57.285 13.298l3.5-3.5 1.414 1.415-3.5 3.5zM57.285 20.711l1.414-1.414 3.5 3.5-1.415 1.414zM3 16h5v2H3zM3.79 22.791l3.5-3.5 1.414 1.415-3.5 3.5zM3.792 11.206l1.414-1.414 3.5 3.5-1.415 1.414z" fill="#db4437" opacity="1" data-original="#db4437"/></g></g></g></g></svg>